<!-- Generator: Adobe Illustrator 24.0.1, SVG Export Plug-In  -->
<svg version="1.1" xmlns="http://www.w3.org/2000/svg" xmlns:xlink="http://www.w3.org/1999/xlink" x="0px" y="0px" width="33.3px"
	 height="27px" viewBox="0 0 33.3 27" style="enable-background:new 0 0 33.3 27;" xml:space="preserve">
<defs>
</defs>
<g id="_xF0B4__1_">
	<path id="path_x5F__xF0B4__x5F_0_1_" d="M16.4,13.8c0.1-0.4,0.4-0.4,0.5,0l1.5,4.5c0.1,0.1,0.1,0.3-0.1,0.3H15
		c-0.1,0-0.1-0.1-0.1-0.3C15.4,16.8,15.9,15.3,16.4,13.8z M28.7,2.7c3,0,4.6,1.5,4.6,4.5v7.5v7.8c0,3-1.5,4.5-4.2,4.5H4.6
		C1.5,27,0,25.4,0,22.5v-18C0,1.5,1.5,0,4.1,0h4.2c1.5,0,2.2,0.3,3.2,1l0.9,0.8c0.8,0.6,1.3,0.9,2.3,0.9C19.4,2.7,24,2.7,28.7,2.7z
		 M30.1,23.8c0.1-0.6,0.2-1.6,0.4-2.4c0-0.1-0.1-0.3-0.3-0.3l-5.5,0.4c-0.3,0-0.4,0-0.4-0.4l1.4-11.7c0-0.3,0-0.3-0.3-0.3l-2.1,0.4
		c-0.3,0.1-0.5,0.3-0.5,0.4l-1,8.6c0,0.1-0.3,0.3-0.4,0l-3.6-8.7c0,0-0.1-0.1-0.3-0.1h-1.8c-0.1,0-0.3,0-0.3,0.1l-3.7,8.6
		c-0.1,0.3-0.4,0.1-0.4,0l-1.2-8.5c0-0.1,0-0.3-0.1-0.4L7.8,9.3c-0.3,0-0.3,0-0.3,0.3L9,21.1c0,0.3,0,0.4-0.4,0.4l-5.5-0.4
		c-0.3,0-0.3,0.1-0.3,0.3C3,22,3.1,23,3.2,23.7C3.2,24,3.3,24,3.6,24c3,0,5.9,0,8.9,0c0.4,0,0.4,0,0.5-0.3l1.3-3.3
		c0-0.3,0.1-0.3,0.5-0.3h3.7c0.3,0,0.5,0,0.5,0.3l1.3,3.3c0.1,0.3,0.1,0.3,0.5,0.3c3,0,5.9,0,8.9,0C29.9,24,30.1,24,30.1,23.8z
		 M30.7,7.3L30.7,7.3c0-1.4-0.8-2.2-2.2-2.2H14.1c-1.5,0-2.3-0.3-3.2-0.9L10,3.5C9.3,2.8,8.7,2.6,7.7,2.6H4.6
		c-1.3,0-2.1,0.6-2.1,2.1v2.7C11.9,7.3,21.3,7.3,30.7,7.3z"/>
</g>
</svg>
